<svg xmlns="http://www.w3.org/2000/svg" version="1.1" xmlns:xlink="http://www.w3.org/1999/xlink" xmlns:svgjs="http://svgjs.dev/svgjs" width="1500" height="1500" viewBox="0 0 1500 1500"><rect width="1500" height="1500" fill="#000000"></rect><g transform="matrix(0.6666666666666666,0,0,0.6666666666666666,250.00000000000017,187.66666666666674)"><svg viewBox="0 0 320 360" data-background-color="#000000" preserveAspectRatio="xMidYMid meet" height="1687" width="1500" xmlns="http://www.w3.org/2000/svg" xmlns:xlink="http://www.w3.org/1999/xlink"><g id="tight-bounds" transform="matrix(1,0,0,1,0,0)"><svg viewBox="0 0 320 360" height="360" width="320"><g><svg></svg></g><g><svg viewBox="0 0 320 360" height="360" width="320"><g><path d="M20.961 227.22l3.726 4.658-1.863-6.056c-0.466-2.795-3.726 0.466-1.863 1.398M25.153 224.425c1.397 2.329 2.795 4.658 2.795 6.987 0 3.261 2.795 4.658 5.123 5.589-3.261-3.726-5.124-13.974-7.918-12.576M204.017 26.929c7.918 0 15.371-0.932 23.756 0.931 20.495 5.124 37.729 15.371 49.374 29.811l32.606 52.169c1.397 13.042 4.192 27.482 3.726 43.319 3.261 0 2.795-4.658 6.521-5.59-3.726 9.316-5.59 20.961-6.521 34.469-2.329-7.453 0-18.632 0.466-24.687-3.261 5.124-5.124 1.397-5.124-0.932 0.466-3.726-1.397-3.261-2.795-4.658-5.124-4.658-8.384-9.782-12.11-17.7 2.329-6.055 2.795-14.905-4.658-19.563-2.329-1.397-5.124-3.726-6.521-7.453-1.863-5.124-5.124-11.179-4.193-19.097 0.466-2.329-6.987 5.124-11.179 1.863-18.166-12.576-36.332-27.016-58.224-39.127-11.645 0-20.029-4.192-24.221-9.316-3.726-4.658-0.932-10.713 4.658-11.179 3.261 0 6.987-0.932 9.782 0.932 0.466-1.863 2.329-4.192 4.657-4.192M157.904 16.215l0.932 0.466c4.658 0.932 6.987 7.453 12.11 5.124 0 3.261 0.466 6.521-0.466 8.85-1.397 3.726-5.59 3.726-8.85 3.726-31.208-1.863-49.374 11.179-68.471 22.358-5.124 3.261-10.713 5.59-14.906 9.782-20.029 18.632-41.921 35.866-47.045 70.335l-4.192 38.195c-0.466 4.192-5.124 8.384-4.192 13.508l3.26 22.824c-3.261-3.261-5.124 0.932-4.192 2.795 0.466 1.397 2.329 6.055 5.124 1.863 3.726 6.987 7.453 20.495 12.576 26.55 15.837 18.632 36.332 35.4 53.101 52.169 4.192-0.932 7.453-0.932 8.384-3.727 1.397 2.795-1.397 5.59-3.726 6.056 7.453 4.658 15.837 8.85 27.016 9.781 14.44 0.932 27.948 3.261 40.524 6.522 6.521-1.863 13.042-2.795 20.029-3.261 2.329 0 3.726-3.726 6.521-4.658l0.466-4.658c2.795 4.192 2.329-1.397 0.466-4.192 3.261 2.795 4.192 5.124 5.589 6.987 0-1.397 3.726-6.521 3.727-0.466l0.931-6.055c1.397-0.932 1.863 5.124 3.261 0.931 1.397-4.192 4.192-0.932 6.987-2.329-0.932 1.863-0.466 5.59 2.794 3.261l3.727-3.261c2.329 5.59 6.055 3.261 7.918 2.329 20.495-13.042 40.99-28.413 60.553-43.784l-0.466 6.055 2.329-7.453c2.329 2.329 4.192 0.466 5.124-0.931 2.795-4.658 6.521-9.316 12.577-13.508-7.453 20.029-16.303 35.866-27.482 48.908l-4.658 5.59c0 3.261-0.932 7.453-4.658 7.918-1.863 0.466-5.59-0.932-8.384 1.863-1.397 1.863 3.261 5.59-0.466 2.795-3.261-2.329-6.521 0-10.248 0.932-2.795 0.932 1.863 3.726 2.795 5.589 0.932 1.863 1.863 3.726 1.398 6.056l-5.124-5.59c-6.055 3.261-9.782 9.316-14.906 13.974-2.329 1.863-1.397 5.124-1.397 7.918-3.261 0-6.987-0.932-8.85 0.932-1.397 1.863-0.932 4.658-0.932 7.453-4.658-0.466-5.124-7.453-9.315-6.056-4.192 0.932-8.85 1.397-12.577 3.727 2.795 5.59-4.658 2.329-3.726 3.26-6.987-4.192-13.042-7.453-20.495-4.658-15.837-5.124-35.4-2.795-49.84-0.931 0-2.329 0.466-4.658-0.466-5.124-0.932 2.329-3.726 1.397-3.26 1.397-8.85-6.055-17.7-9.782-27.016-14.905-8.384 0.932-16.303-3.261-18.632-5.59-6.521-6.055-13.974-2.795-20.029-4.192-13.042-3.261-17.7-16.769-19.098-26.084-0.932-4.658-4.658-6.521-6.055-6.056-6.055-19.563-15.371-37.263-22.824-55.429-1.863-4.658-1.397-9.316-1.397-14.44 2.329 0.932 4.658 0.466 4.192-2.794-2.329-15.371-7.918-27.016-13.974-38.195 3.261-15.837 3.726-34.469 11.179-48.443 6.521-12.576 18.632-19.098 27.016-29.811 2.795-3.726 2.795-8.85 5.59-12.11 9.316-9.316 18.632-19.098 28.879-27.482 4.658-3.726 10.247 0 17.234-1.397 2.329-8.384 11.645-15.837 20.495-13.508 3.726 0.932 11.179-8.85 13.508-9.782 3.726-1.397 1.863 3.726 1.863 6.987 8.85-6.987 20.961-10.713 32.14-14.906" fill="#ffffff" fill-rule="nonzero" stroke="none" stroke-width="1" stroke-linecap="butt" stroke-linejoin="miter" stroke-miterlimit="10" stroke-dasharray="" stroke-dashoffset="0" font-family="none" font-weight="none" font-size="none" text-anchor="none" style="mix-blend-mode: normal" data-fill-palette-color="tertiary"></path></g><g transform="matrix(1,0,0,1,64,101.16208305391334)"><svg viewBox="0 0 192 157.67583389217333" height="157.67583389217333" width="192"><g><svg viewBox="0 0 192 157.67583389217333" height="157.67583389217333" width="192"><g><svg viewBox="0 0 192 157.67583389217333" height="157.67583389217333" width="192"><g><svg viewBox="0 0 192 157.67583389217333" height="157.67583389217333" width="192"><g id="textblocktransform"><svg viewBox="0 0 192 157.67583389217333" height="157.67583389217333" width="192" id="textblock"><g><svg viewBox="0 0 192 157.67583389217333" height="157.67583389217333" width="192"><g transform="matrix(1,0,0,1,0,0)"><svg width="192" viewBox="0.7384615384615384 -36.461363635498 54.261538461538464 44.561363635498" height="157.67583389217333" data-palette-color="#89939e"><path d="M7.35-16.65L7.35-16.65Q7.1-14.9 7.1-13.25 7.1-11.6 7.35-10.15 7.6-8.7 8.08-7.53 8.55-6.35 9.3-5.55L9.3-5.55Q10.25-4.55 11.78-4.13 13.3-3.7 15.2-3.95L15.2-3.95Q15.7-5.9 16.38-7.7 17.05-9.5 17.68-11.2 18.3-12.9 18.75-14.55 19.2-16.2 19.2-17.8L19.2-17.8Q19.2-17.95 19.25-17.95L19.25-17.95Q19.3-17.95 19.38-17.8 19.45-17.65 19.45-17.6L19.45-17.6Q20.05-15.75 19.83-13.88 19.6-12 18.98-10.05 18.35-8.1 17.55-6.08 16.75-4.05 16.25-1.9L16.25-1.9Q16-0.95 15.95 0.33 15.9 1.6 16.13 2.93 16.35 4.25 16.93 5.55 17.5 6.85 18.55 7.85L18.55 7.85Q18.6 7.95 18.7 8.05L18.7 8.05 18.75 8.1Q18.75 8.1 18.6 8.1L18.6 8.1Q18.55 8.1 18.5 8.05L18.5 8.05Q17.15 7.15 16.28 6 15.4 4.85 14.98 3.63 14.55 2.4 14.48 1.18 14.4-0.05 14.6-1.05L14.6-1.05Q13.1-0.7 11.63-0.95 10.15-1.2 8.9-1.85L8.9-1.85Q8.65-1.95 8.38-2.25 8.1-2.55 8.15-2.6L8.15-2.6Q8.15-2.6 8.93-2.48 9.7-2.35 10.68-2.23 11.65-2.1 12.63-2.02 13.6-1.95 14.05-2L14.05-2Q14.2-2.05 14.38-2.08 14.55-2.1 14.8-2.2L14.8-2.2Q14.8-2.45 14.85-2.68 14.9-2.9 15-3.15L15-3.15Q13.25-2.75 11.6-3.05 9.95-3.35 8.65-4.45L8.65-4.45Q7.6-5.35 6.98-6.63 6.35-7.9 6.03-9.4 5.7-10.9 5.65-12.53 5.6-14.15 5.75-15.75L5.75-15.75Q5.95-18.3 6.75-20.9 7.55-23.5 8.88-25.73 10.2-27.95 12.03-29.58 13.85-31.2 16.15-31.85L16.15-31.85Q17.2-32.15 18.4-32.1 19.6-32.05 20.65-31.65 21.7-31.25 22.48-30.53 23.25-29.8 23.45-28.7L23.45-28.7Q23.7-27.5 23.25-26.38 22.8-25.25 22-24.43 21.2-23.6 20.2-23.25 19.2-22.9 18.3-23.3L18.3-23.3Q17.95-23.4 18.15-23.5L18.15-23.5Q18.25-23.55 18.3-23.5 18.35-23.45 18.45-23.45L18.45-23.45Q19.05-23.35 19.8-23.7 20.55-24.05 21.18-24.7 21.8-25.35 22.18-26.23 22.55-27.1 22.4-28L22.4-28Q22.25-28.75 21.78-29.3 21.3-29.85 20.55-30.2 19.8-30.55 18.88-30.65 17.95-30.75 16.9-30.55L16.9-30.55Q15.05-30.2 13.45-28.88 11.85-27.55 10.6-25.63 9.35-23.7 8.5-21.35 7.65-19 7.35-16.65ZM11.3-0.15L11.3-0.15Q12-0.05 12.1 0 12.2 0.05 11.35 0.05L11.35 0.05Q9.95 0.05 8.53-0.4 7.1-0.85 5.85-1.68 4.6-2.5 3.6-3.7 2.6-4.9 2.1-6.35L2.1-6.35Q1-9.5 0.8-12.38 0.6-15.25 1.05-18.15L1.05-18.15Q1.3-19.7 1.85-21.7 2.4-23.7 3.38-25.8 4.35-27.9 5.8-29.95 7.25-32 9.3-33.7L9.3-33.7Q11.45-35.5 14.1-36.08 16.75-36.65 19.15-36.25 21.55-35.85 23.4-34.52 25.25-33.2 25.85-31.25L25.85-31.25Q25.9-31.15 26-30.85 26.1-30.55 26-30.5L26-30.5Q25.9-30.45 25.8-30.7 25.7-30.95 25.45-31.25L25.45-31.25Q23.35-34.1 20.7-34.85 18.05-35.6 15.48-35 12.9-34.4 10.63-32.73 8.35-31.05 7-29L7-29Q4.65-25.55 3.5-21.48 2.35-17.4 2.4-13.2L2.4-13.2Q2.45-11.15 2.85-9.05 3.25-6.95 4.3-4.95L4.3-4.95Q5.3-3 7.28-1.7 9.25-0.4 11.3-0.15ZM4.2-19.1L4.2-19.1Q4.55-21.7 5.4-24.23 6.25-26.75 7.68-28.8 9.1-30.85 11.2-32.35 13.3-33.85 16.15-34.45L16.15-34.45Q17.1-34.65 18.32-34.63 19.55-34.6 20.78-34.18 22-33.75 23.08-32.9 24.15-32.05 24.85-30.55L24.85-30.55Q25.5-29.1 25.33-27.68 25.15-26.25 24.53-25.13 23.9-24 22.98-23.25 22.05-22.5 21.15-22.4L21.15-22.4Q21-22.35 20.78-22.38 20.55-22.4 20.55-22.5L20.55-22.5Q20.55-22.6 20.6-22.58 20.65-22.55 21.15-22.75L21.15-22.75Q21.5-22.9 21.98-23.28 22.45-23.65 22.88-24.25 23.3-24.85 23.65-25.65 24-26.45 24.1-27.4L24.1-27.4Q24.2-28.4 23.85-29.3 23.5-30.2 22.83-30.93 22.15-31.65 21.25-32.15 20.35-32.65 19.4-32.8L19.4-32.8Q16.45-33.25 14.05-32.02 11.65-30.8 9.8-28.68 7.95-26.55 6.7-23.93 5.45-21.3 4.8-18.95L4.8-18.95Q4.8-18.9 4.7-18.6 4.6-18.3 4.5-17.95 4.4-17.6 4.33-17.32 4.25-17.05 4.2-17.05L4.2-17.05Q4.15-17.05 4.13-17.32 4.1-17.6 4.13-17.98 4.15-18.35 4.17-18.68 4.2-19 4.2-19.1ZM21.35-1.45L21.35-1.45Q21.05-0.35 20.48 1.33 19.9 3 19.45 4.4L19.45 4.4Q19.3 4.8 19.2 4.8L19.2 4.8Q19 4.8 18.98 4.63 18.95 4.45 18.95 4.35L18.95 4.35Q18.8 3 18.9 1.78 19 0.55 19.3-0.65 19.6-1.85 20.03-3.05 20.45-4.25 20.9-5.6L20.9-5.6Q21.5-7.35 22-9.03 22.5-10.7 22.6-12.8L22.6-12.8Q22.6-13.05 22.63-13.08 22.65-13.1 22.75-13.1L22.75-13.1 22.9-12.8Q23.4-11.75 23.33-10.2 23.25-8.65 22.9-7 22.55-5.35 22.08-3.85 21.6-2.35 21.35-1.45ZM21.5-9.4L21.5-9.4Q20.8-7.5 19.95-5.45 19.1-3.4 18.2-1.5L18.2-1.5Q18.15-1.45 18.03-1.18 17.9-0.9 17.75-0.95L17.75-0.95Q17.65-1 17.65-1.28 17.65-1.55 17.65-1.7L17.65-1.7Q17.65-2.15 17.75-2.83 17.85-3.5 18-4.17 18.15-4.85 18.32-5.5 18.5-6.15 18.7-6.6L18.7-6.6Q18.8-6.9 19.15-8.22 19.5-9.55 19.85-11.13 20.2-12.7 20.4-14.2 20.6-15.7 20.4-16.45L20.4-16.45Q20.3-16.7 20.4-16.8L20.4-16.8Q20.5-16.8 20.58-16.68 20.65-16.55 20.75-16.45L20.75-16.45Q21.2-15.75 21.45-14.83 21.7-13.9 21.78-12.93 21.85-11.95 21.78-11.03 21.7-10.1 21.5-9.4ZM18.55 5.35L18.55 5.35Q19.15 6.6 20 7.7L20 7.7Q20.15 7.85 20.05 7.95L20.05 7.95Q19.9 8.05 19.75 7.95L19.75 7.95Q19.65 7.9 19.6 7.85L19.6 7.85Q18.9 7.45 18.45 7.05 18 6.65 17.55 5.5L17.55 5.5Q17.4 5.1 17.28 4.48 17.15 3.85 17.1 3.28 17.05 2.7 17.07 2.3 17.1 1.9 17.25 1.95L17.25 1.95Q17.5 1.95 17.68 2.55 17.85 3.15 17.9 3.3L17.9 3.3Q18.1 3.85 18.2 4.35 18.3 4.85 18.55 5.35ZM52.1-32.4L52.1-32.4Q52.1-31.5 51.67-30.5 51.25-29.5 50.65-28.55 50.05-27.6 49.3-26.83 48.55-26.05 47.85-25.55L47.85-25.55Q45.95-24.15 43.67-22.88 41.4-21.6 39.25-20.75L39.25-20.75Q39.15-20.7 38.8-20.58 38.45-20.45 38.35-20.55L38.35-20.55Q38.25-20.65 38.5-20.93 38.75-21.2 38.9-21.3L38.9-21.3Q39.25-21.65 39.82-22.15 40.4-22.65 41.02-23.13 41.65-23.6 42.27-24.05 42.9-24.5 43.4-24.75L43.4-24.75Q43.75-24.95 44.97-25.88 46.2-26.8 47.6-28.03 49-29.25 50.22-30.5 51.45-31.75 51.75-32.55L51.75-32.55Q51.95-32.9 52.05-32.8L52.05-32.8Q52.1-32.75 52.1-32.6 52.1-32.45 52.1-32.4ZM30.3-13.85L30.3-13.85Q32.15-13.6 33.9-13.13 35.65-12.65 37.15-11.35L37.15-11.35Q38.9-9.85 40.75-8.03 42.6-6.2 44.15-4.45L44.15-4.45Q44.25-4.35 44.45-4.08 44.65-3.8 44.55-3.65L44.55-3.65Q44.5-3.55 44.17-3.68 43.85-3.8 43.75-3.9L43.75-3.9Q43.3-4.15 42.67-4.58 42.05-5 41.4-5.5 40.75-6 40.15-6.48 39.55-6.95 39.15-7.35L39.15-7.35Q38.9-7.6 37.82-8.47 36.75-9.35 35.3-10.33 33.85-11.3 32.27-12.15 30.7-13 29.45-13.3L29.45-13.3Q29.05-13.4 29.07-13.8 29.1-14.2 29.15-14.5L29.15-14.5Q29.25-15.1 29.42-16 29.6-16.9 29.77-17.85 29.95-18.8 30.15-19.7 30.35-20.6 30.55-21.25L30.55-21.25Q30.7-21.7 31.1-23.5 31.5-25.3 31.9-27.5 32.3-29.7 32.5-31.75 32.7-33.8 32.45-34.75L32.45-34.75Q32.35-35.2 32.5-35.2L32.5-35.2Q32.6-35.2 32.65-35.08 32.7-34.95 32.8-34.85L32.8-34.85Q33.35-34 33.65-32.8 33.95-31.6 34.02-30.28 34.1-28.95 33.97-27.65 33.85-26.35 33.6-25.4L33.6-25.4Q33.05-23.3 32.35-21.23 31.65-19.15 30.85-17.05L30.85-17.05Q31.4-17.85 31.9-18.57 32.4-19.3 32.8-19.95L32.8-19.95 32.85-20.2Q33.35-22.6 34.07-25.05 34.8-27.5 34.9-30.35L34.9-30.35Q35-30.6 35.05-30.6L35.05-30.6Q35.1-30.6 35.15-30.5 35.2-30.4 35.25-30.3L35.25-30.3Q35.8-28.95 35.65-26.78 35.5-24.6 35.05-22.25L35.05-22.25Q35.65-22.75 36.22-23.2 36.8-23.65 37.5-24.1L37.5-24.1Q39.4-25.4 41.4-26.6 43.4-27.8 45.27-29.05 47.15-30.3 48.75-31.6 50.35-32.9 51.5-34.45L51.5-34.45Q51.65-34.6 51.7-34.5L51.7-34.5Q51.75-34.5 51.72-34.38 51.7-34.25 51.7-34.2L51.7-34.2Q50.95-32.15 49.42-30.58 47.9-29 45.97-27.65 44.05-26.3 41.95-25.1 39.85-23.9 37.95-22.55L37.95-22.55Q35.6-20.95 33.55-18.75 31.5-16.55 30.3-13.85ZM32.7-14.15L32.7-14.15Q32.45-14.15 32.02-14.18 31.6-14.2 31.25-14.15L31.25-14.15Q31.45-14.55 31.72-14.95 32-15.35 32.25-15.75L32.25-15.75Q32.55-16.15 32.97-16.63 33.4-17.1 33.82-17.48 34.25-17.85 34.57-18.03 34.9-18.2 35-18L35-18Q35.05-17.95 34.92-17.75 34.8-17.55 34.6-17.28 34.4-17 34.22-16.78 34.05-16.55 34-16.45L34-16.45Q33.45-15.75 33.2-15.23 32.95-14.7 32.7-14.15ZM51.85-0.6L51.85-0.6Q51.75-0.5 51.57-0.58 51.4-0.65 51.2-0.75L51.2-0.75Q49.75-1.4 48.47-2.35 47.2-3.3 46-4.4 44.8-5.5 43.62-6.68 42.45-7.85 41.25-9L41.25-9Q40.4-9.8 39.45-10.65 38.5-11.5 37.5-12.23 36.5-12.95 35.42-13.48 34.35-14 33.25-14.15L33.25-14.15Q33.9-15.1 35.35-16.3 36.8-17.5 38.5-18.65 40.2-19.8 41.85-20.85 43.5-21.9 44.55-22.55L44.55-22.55Q46.3-23.65 48.07-24.9 49.85-26.15 51.35-27.95L51.35-27.95Q51.5-28.15 51.65-28.1L51.65-28.1Q51.65-28 51.6-27.93 51.55-27.85 51.55-27.75L51.55-27.75Q51.3-26.5 50.07-25.13 48.85-23.75 47.3-22.5 45.75-21.25 44.15-20.18 42.55-19.1 41.6-18.45L41.6-18.45Q40.7-17.85 39.72-17.3 38.75-16.75 37.75-16.23 36.75-15.7 35.82-15.28 34.9-14.85 34.1-14.5L34.1-14.5Q35.4-14.5 37.07-13.7 38.75-12.9 40.4-11.78 42.05-10.65 43.45-9.43 44.85-8.2 45.6-7.4L45.6-7.4Q47.2-5.65 48.77-4 50.35-2.35 51.55-1.15L51.55-1.15Q51.95-0.75 51.85-0.6ZM31.35-36.1L31.35-36.1Q32.05-33.7 31.8-31.13 31.55-28.55 30.82-25.85 30.1-23.15 29.2-20.35 28.3-17.55 27.65-14.8L27.65-14.8Q27.25-13.05 27.02-11.15 26.8-9.25 26.87-7.33 26.95-5.4 27.32-3.58 27.7-1.75 28.55-0.2L28.55-0.2Q28.75 0.2 28.7 0.2L28.7 0.2Q28.6 0.2 28.5 0.1 28.4 0 28.35 0L28.35 0Q26.95-1.65 26.3-3.58 25.65-5.5 25.5-7.55 25.35-9.6 25.62-11.7 25.9-13.8 26.35-15.8L26.35-15.8Q27-18.55 27.85-21.28 28.7-24 29.42-26.58 30.15-29.15 30.65-31.55 31.15-33.95 31.1-36.15L31.1-36.15Q31.1-36.45 31.15-36.45L31.15-36.45Q31.2-36.5 31.27-36.33 31.35-36.15 31.35-36.1ZM55 1L55 1Q55 1.1 54.9 1.15 54.8 1.2 54.7 1.25L54.7 1.25Q52.8 1.95 51.02 1.88 49.25 1.8 47.57 1.28 45.9 0.75 44.37-0.1 42.85-0.95 41.5-1.8L41.5-1.8Q40.15-2.65 38.9-3.75 37.65-4.85 36.45-6 35.25-7.15 34.07-8.25 32.9-9.35 31.75-10.2L31.75-10.2 30.2-5Q30.1-4.75 30.02-4.55 29.95-4.35 29.85-4.4L29.85-4.4Q29.75-4.45 29.72-4.67 29.7-4.9 29.7-5.15L29.7-5.15Q29.75-6.6 29.95-8.1 30.15-9.6 30.45-11.1L30.45-11.1Q30.15-11.3 29.7-11.55 29.25-11.8 28.85-12.05L28.85-12.05Q28.75-12.1 28.6-12.23 28.45-12.35 28.5-12.45L28.5-12.45Q28.5-12.5 28.75-12.5L28.75-12.5Q30.55-12.35 32.27-11.33 34-10.3 35.72-8.88 37.45-7.45 39.2-5.8 40.95-4.15 42.85-2.65L42.85-2.65Q45.25-0.8 48.35 0.28 51.45 1.35 54.65 0.95L54.65 0.95Q55 0.85 55 1ZM30.1 0.2L30.1 0.2Q30 0.2 29.8 0.1L29.8 0.1Q29.7 0.05 29.65-0.05L29.65-0.05Q29-0.8 28.62-1.45 28.25-2.1 28-3.55L28-3.55Q27.9-4.1 27.87-4.95 27.85-5.8 27.9-6.6 27.95-7.4 28.07-7.95 28.2-8.5 28.4-8.5L28.4-8.5Q28.45-8.5 28.52-8.25 28.6-8 28.65-7.68 28.7-7.35 28.72-7.03 28.75-6.7 28.75-6.6L28.75-6.6Q28.85-5.5 28.92-4.8 29-4.1 29.1-3.55L29.1-3.55Q29.35-1.95 30.1-0.2L30.1-0.2Q30.15-0.1 30.17 0.05 30.2 0.2 30.1 0.2ZM48.2-0.8L48.2-0.8Q48.55-0.75 49.07-0.63 49.6-0.5 49.9-0.4L49.9-0.4Q51.2-0.05 52.07 0.13 52.95 0.3 54.15 0.35L54.15 0.35Q54.25 0.35 54.42 0.35 54.6 0.35 54.6 0.45L54.6 0.45Q54.6 0.65 54.1 0.7L54.1 0.7Q53.5 0.8 53.05 0.8 52.6 0.8 51.9 0.75L51.9 0.75Q51.5 0.7 50.95 0.6 50.4 0.5 49.85 0.33 49.3 0.15 48.82-0.03 48.35-0.2 48.15-0.4L48.15-0.4Q47.95-0.6 48-0.75L48-0.75Q48-0.8 48.2-0.8Z" opacity="1" transform="matrix(1,0,0,1,0,0)" fill="#ffffff" class="wordmark-text-0" data-fill-palette-color="primary" id="text-0"></path></svg></g></svg></g></svg></g></svg></g><g></g></svg></g></svg></g></svg></g></svg></g><defs></defs></svg><rect width="320" height="360" fill="none" stroke="none" visibility="hidden"></rect></g></svg></g></svg>